<?xml version="1.0" encoding="UTF-8"?>
<svg width="322px" height="322px" viewBox="0 0 322 322" version="1.1" xmlns="http://www.w3.org/2000/svg" xmlns:xlink="http://www.w3.org/1999/xlink">
    <!-- Generator: Sketch 53.2 (72643) - https://sketchapp.com -->
    <title>Artboard</title>
    <desc>Created with Sketch.</desc>
    <g id="Artboard" stroke="none" stroke-width="1" fill="none" fill-rule="evenodd" stroke-linecap="square">
        <g id="maze-solved" stroke-width="2">
            <g id="Group" stroke="#000000">
                <path d="M1,1 L145,1" id="Path"></path>
                <path d="M161,1 L321,1" id="Path"></path>
                <path d="M49,17 L65,17" id="Path"></path>
                <path d="M97,17 L113,17" id="Path"></path>
                <path d="M177,17 L209,17" id="Path"></path>
                <path d="M241,17 L289,17" id="Path"></path>
                <path d="M17,33 L33,33" id="Path"></path>
                <path d="M81,33 L97,33" id="Path"></path>
                <path d="M113,33 L177,33" id="Path"></path>
                <path d="M225,33 L241,33" id="Path"></path>
                <path d="M273,33 L305,33" id="Path"></path>
                <path d="M33,49 L49,49" id="Path"></path>
                <path d="M65,49 L113,49" id="Path"></path>
                <path d="M145,49 L193,49" id="Path"></path>
                <path d="M241,49 L257,49" id="Path"></path>
                <path d="M273,49 L289,49" id="Path"></path>
                <path d="M129,65 L145,65" id="Path"></path>
                <path d="M209,65 L257,65" id="Path"></path>
                <path d="M289,65 L321,65" id="Path"></path>
                <path d="M17,81 L33,81" id="Path"></path>
                <path d="M65,81 L81,81" id="Path"></path>
                <path d="M113,81 L129,81" id="Path"></path>
                <path d="M145,81 L177,81" id="Path"></path>
                <path d="M209,81 L241,81" id="Path"></path>
                <path d="M257,81 L305,81" id="Path"></path>
                <path d="M33,97 L81,97" id="Path"></path>
                <path d="M113,97 L145,97" id="Path"></path>
                <path d="M177,97 L225,97" id="Path"></path>
                <path d="M241,97 L257,97" id="Path"></path>
                <path d="M289,97 L305,97" id="Path"></path>
                <path d="M49,113 L65,113" id="Path"></path>
                <path d="M129,113 L145,113" id="Path"></path>
                <path d="M161,113 L177,113" id="Path"></path>
                <path d="M209,113 L225,113" id="Path"></path>
                <path d="M273,113 L305,113" id="Path"></path>
                <path d="M33,129 L49,129" id="Path"></path>
                <path d="M129,129 L161,129" id="Path"></path>
                <path d="M177,129 L209,129" id="Path"></path>
                <path d="M241,129 L289,129" id="Path"></path>
                <path d="M1,145 L17,145" id="Path"></path>
                <path d="M49,145 L129,145" id="Path"></path>
                <path d="M161,145 L177,145" id="Path"></path>
                <path d="M257,145 L273,145" id="Path"></path>
                <path d="M17,161 L49,161" id="Path"></path>
                <path d="M113,161 L193,161" id="Path"></path>
                <path d="M241,161 L257,161" id="Path"></path>
                <path d="M289,161 L305,161" id="Path"></path>
                <path d="M65,177 L145,177" id="Path"></path>
                <path d="M177,177 L241,177" id="Path"></path>
                <path d="M257,177 L289,177" id="Path"></path>
                <path d="M17,193 L65,193" id="Path"></path>
                <path d="M145,193 L177,193" id="Path"></path>
                <path d="M225,193 L257,193" id="Path"></path>
                <path d="M289,193 L321,193" id="Path"></path>
                <path d="M65,209 L113,209" id="Path"></path>
                <path d="M145,209 L161,209" id="Path"></path>
                <path d="M209,209 L225,209" id="Path"></path>
                <path d="M241,209 L289,209" id="Path"></path>
                <path d="M17,225 L97,225" id="Path"></path>
                <path d="M145,225 L177,225" id="Path"></path>
                <path d="M193,225 L241,225" id="Path"></path>
                <path d="M289,225 L305,225" id="Path"></path>
                <path d="M49,241 L81,241" id="Path"></path>
                <path d="M97,241 L113,241" id="Path"></path>
                <path d="M129,241 L145,241" id="Path"></path>
                <path d="M161,241 L209,241" id="Path"></path>
                <path d="M225,241 L257,241" id="Path"></path>
                <path d="M273,241 L289,241" id="Path"></path>
                <path d="M305,241 L321,241" id="Path"></path>
                <path d="M81,257 L97,257" id="Path"></path>
                <path d="M161,257 L193,257" id="Path"></path>
                <path d="M257,257 L273,257" id="Path"></path>
                <path d="M17,273 L33,273" id="Path"></path>
                <path d="M97,273 L145,273" id="Path"></path>
                <path d="M161,273 L177,273" id="Path"></path>
                <path d="M193,273 L225,273" id="Path"></path>
                <path d="M241,273 L257,273" id="Path"></path>
                <path d="M305,273 L321,273" id="Path"></path>
                <path d="M1,289 L17,289" id="Path"></path>
                <path d="M33,289 L65,289" id="Path"></path>
                <path d="M81,289 L129,289" id="Path"></path>
                <path d="M145,289 L193,289" id="Path"></path>
                <path d="M225,289 L289,289" id="Path"></path>
                <path d="M305,289 L321,289" id="Path"></path>
                <path d="M17,305 L33,305" id="Path"></path>
                <path d="M113,305 L145,305" id="Path"></path>
                <path d="M193,305 L241,305" id="Path"></path>
                <path d="M289,305 L305,305" id="Path"></path>
                <path d="M1,321 L161,321" id="Path"></path>
                <path d="M177,321 L321,321" id="Path"></path>
                <path d="M1,1 L1,321" id="Path"></path>
                <path d="M17,17 L17,81" id="Path"></path>
                <path d="M17,97 L17,145" id="Path"></path>
                <path d="M17,177 L17,209" id="Path"></path>
                <path d="M17,241 L17,273" id="Path"></path>
                <path d="M33,1 L33,33" id="Path"></path>
                <path d="M33,49 L33,65" id="Path"></path>
                <path d="M33,81 L33,177" id="Path"></path>
                <path d="M33,209 L33,305" id="Path"></path>
                <path d="M49,17 L49,97" id="Path"></path>
                <path d="M49,177 L49,225" id="Path"></path>
                <path d="M49,241 L49,273" id="Path"></path>
                <path d="M49,305 L49,321" id="Path"></path>
                <path d="M65,33 L65,81" id="Path"></path>
                <path d="M65,113 L65,145" id="Path"></path>
                <path d="M65,161 L65,193" id="Path"></path>
                <path d="M65,257 L65,321" id="Path"></path>
                <path d="M81,1 L81,33" id="Path"></path>
                <path d="M81,65 L81,81" id="Path"></path>
                <path d="M81,97 L81,129" id="Path"></path>
                <path d="M81,145 L81,161" id="Path"></path>
                <path d="M81,193 L81,209" id="Path"></path>
                <path d="M81,241 L81,305" id="Path"></path>
                <path d="M97,65 L97,193" id="Path"></path>
                <path d="M97,305 L97,321" id="Path"></path>
                <path d="M113,17 L113,81" id="Path"></path>
                <path d="M113,97 L113,129" id="Path"></path>
                <path d="M113,193 L113,273" id="Path"></path>
                <path d="M113,289 L113,305" id="Path"></path>
                <path d="M129,1 L129,17" id="Path"></path>
                <path d="M129,49 L129,65" id="Path"></path>
                <path d="M129,113 L129,129" id="Path"></path>
                <path d="M129,177 L129,257" id="Path"></path>
                <path d="M145,17 L145,49" id="Path"></path>
                <path d="M145,65 L145,97" id="Path"></path>
                <path d="M145,129 L145,161" id="Path"></path>
                <path d="M145,193 L145,209" id="Path"></path>
                <path d="M145,225 L145,241" id="Path"></path>
                <path d="M145,257 L145,305" id="Path"></path>
                <path d="M161,1 L161,17" id="Path"></path>
                <path d="M161,49 L161,65" id="Path"></path>
                <path d="M161,81 L161,129" id="Path"></path>
                <path d="M161,161 L161,193" id="Path"></path>
                <path d="M161,257 L161,273" id="Path"></path>
                <path d="M161,305 L161,321" id="Path"></path>
                <path d="M177,17 L177,33" id="Path"></path>
                <path d="M177,65 L177,81" id="Path"></path>
                <path d="M177,129 L177,145" id="Path"></path>
                <path d="M177,193 L177,225" id="Path"></path>
                <path d="M177,289 L177,321" id="Path"></path>
                <path d="M193,33 L193,129" id="Path"></path>
                <path d="M193,145 L193,161" id="Path"></path>
                <path d="M193,177 L193,225" id="Path"></path>
                <path d="M193,257 L193,289" id="Path"></path>
                <path d="M209,17 L209,49" id="Path"></path>
                <path d="M209,65 L209,81" id="Path"></path>
                <path d="M209,129 L209,209" id="Path"></path>
                <path d="M209,225 L209,257" id="Path"></path>
                <path d="M209,273 L209,289" id="Path"></path>
                <path d="M225,1 L225,65" id="Path"></path>
                <path d="M225,97 L225,161" id="Path"></path>
                <path d="M225,241 L225,257" id="Path"></path>
                <path d="M225,289 L225,305" id="Path"></path>
                <path d="M241,97 L241,129" id="Path"></path>
                <path d="M241,145 L241,177" id="Path"></path>
                <path d="M241,209 L241,225" id="Path"></path>
                <path d="M241,257 L241,289" id="Path"></path>
                <path d="M257,17 L257,65" id="Path"></path>
                <path d="M257,81 L257,113" id="Path"></path>
                <path d="M257,129 L257,145" id="Path"></path>
                <path d="M257,177 L257,193" id="Path"></path>
                <path d="M257,225 L257,257" id="Path"></path>
                <path d="M257,289 L257,321" id="Path"></path>
                <path d="M273,49 L273,81" id="Path"></path>
                <path d="M273,97 L273,113" id="Path"></path>
                <path d="M273,145 L273,193" id="Path"></path>
                <path d="M273,209 L273,225" id="Path"></path>
                <path d="M273,257 L273,289" id="Path"></path>
                <path d="M273,305 L273,321" id="Path"></path>
                <path d="M289,49 L289,65" id="Path"></path>
                <path d="M289,145 L289,161" id="Path"></path>
                <path d="M289,193 L289,209" id="Path"></path>
                <path d="M289,225 L289,305" id="Path"></path>
                <path d="M305,1 L305,49" id="Path"></path>
                <path d="M305,81 L305,97" id="Path"></path>
                <path d="M305,113 L305,193" id="Path"></path>
                <path d="M305,209 L305,225" id="Path"></path>
                <path d="M305,241 L305,257" id="Path"></path>
                <path d="M321,1 L321,321" id="Path"></path>
            </g>
            <path d="M153,1 L153,9 L137,9 L137,25 L121,25 L121,9 L89,9 L89,25 L105,25 L105,41 L73,41 L73,25 L57,25 L57,89 L89,89 L89,57 L105,57 L105,89 L137,89 L137,73 L121,73 L121,41 L137,41 L137,57 L153,57 L153,73 L169,73 L169,57 L185,57 L185,89 L169,89 L169,105 L185,105 L185,121 L169,121 L169,137 L153,137 L153,153 L185,153 L185,137 L201,137 L201,169 L169,169 L169,185 L185,185 L185,233 L153,233 L153,249 L137,249 L137,265 L121,265 L121,185 L105,185 L105,201 L89,201 L89,185 L73,185 L73,201 L57,201 L57,217 L105,217 L105,233 L41,233 L41,281 L57,281 L57,249 L73,249 L73,313 L89,313 L89,297 L105,297 L105,313 L153,313 L153,297 L169,297 L169,321" id="Path" stroke="#E0B201" stroke-linejoin="round" stroke-dasharray="5,5"></path>
        </g>
    </g>
</svg>